<svg width="24" height="24" viewBox="0 0 24 24" fill="none" xmlns="http://www.w3.org/2000/svg">
<path id="icon-google" fill-rule="evenodd" clip-rule="evenodd" d="M3 0C1.34315 0 0 1.34315 0 3V21C0 22.6569 1.34315 24 3 24H21C22.6569 24 24 22.6569 24 21V3C24 1.34315 22.6569 0 21 0H3ZM16 13.4H12V11H18.6C18.7 11.4 18.7 11.7 18.7 12.2C18.7 16.2 16 19 12 19C8.1 19 5 15.9 5 12C5 8.1 8.1 5 12 5C13.9 5 15.5 5.7 16.7 6.9L14.8 8.7C14.3 8.2 13.4 7.6 12 7.6C9.6 7.6 7.7 9.6 7.7 12C7.7 14.4 9.6 16.4 12 16.4C14.8 16.4 15.8 14.4 16 13.4Z" fill="#666666"/>
</svg>
